# xmcd
#
# Track frame offsets:
# 150
# 16252
# 39072
# 52086
# 69236
# 84345
# 100645
# 113571
# 127169
# 140317
# 156333
# 172880
# 187168
# 201201
# 218379
# 234111
# 248563
# 264150
# 275865
# 290609
# 306372
# 323524
# 338543
# 347731
#
# Disc length: 4672 seconds
#
#
# Revision: 0
# Processed by: cddbd v1.5.2PL0 Copyright (c) Steve Scherf et al.
# Submitted via: FreeRIP 2.945 
#
DISCID=47123e18
DTITLE=Axe 2007 - Porto Seguro
DYEAR=1900
DGENRE=axe
TTITLE0=Ivete Sangalo - Berimbal Metalizado
TTITLE1=Prakata - Swing Bom
TTITLE2=Serginho - E pra Balançar
TTITLE3=Beija flor  - Vixe Mainha
TTITLE4=O Rodo - Cala a boca e beija logo
TTITLE5=Ah Wilson Vai!!
TTITLE6=Xinelada - Bote Ae
TTITLE7=Araketu - Cuscuz
TTITLE8=Swing do P - Tiro e Queda
TTITLE9=Rapazolla - Foi na Praia
TTITLE10=Parangole - So as Cabecas
TTITLE11=Unscarai - Pirraça
TTITLE12=Os praieiros - Domingo De manha
TTITLE13=Ivete Sangalo - Abalou
TTITLE14=Raggatoni - Cremosinho
TTITLE15=Rapazolla - Rakata
TTITLE16=Forrozada - Abgail
TTITLE17=spremacisa x garotos romeu - pinto
TTITLE18=Raggatoni - Deixa Disso
TTITLE19=Netinho - Balanço Bom
TTITLE20=Parangole - Ai Delicia
TTITLE21=Os Caçadores - Dona Gigi
TTITLE22=Lelecuzinho - Michael Jackson no Arrocha
TTITLE23=Musica Antistress
EXTD=
EXTT0=
EXTT1=
EXTT2=
EXTT3=
EXTT4=
EXTT5=
EXTT6=
EXTT7=
EXTT8=
EXTT9=
EXTT10=
EXTT11=
EXTT12=
EXTT13=
EXTT14=
EXTT15=
EXTT16=
EXTT17=
EXTT18=
EXTT19=
EXTT20=
EXTT21=
EXTT22=
EXTT23=
PLAYORDER=
